<svg
  width="96"
  height="96"
  viewBox="0 0 96 96"
  fill="none"
  xmlns="http://www.w3.org/2000/svg"
>
  <g clip-path="url(#clip0_1_13)">
    <path
      d="M80 8H16C11.6 8 8 11.6 8 16V88L24 72H80C84.4 72 88 68.4 88 64V16C88 11.6 84.4 8 80 8Z"
      fill="currentColor"
    />
    <path
      d="M56.7459 33.1348L55.1968 31.5319L39.5543 46.6497L41.1034 48.2525L56.7459 33.1348Z"
      fill="white"
    />
    <path
      d="M55.8 32.2H69.84C70.7016 32.2 71.4 32.8985 71.4 33.76V61.84C71.4 62.7016 70.7016 63.4 69.84 63.4H41.76C40.8985 63.4 40.2 62.7016 40.2 61.84V47.8"
      fill="white"
    />
    <path
      d="M55.8 32.2H69.84C70.7016 32.2 71.4 32.8985 71.4 33.76V61.84C71.4 62.7016 70.7016 63.4 69.84 63.4H41.76C40.8985 63.4 40.2 62.7016 40.2 61.84V47.8"
      stroke="currentColor"
      stroke-width="2"
      stroke-linecap="round"
      stroke-linejoin="round"
    />
    <path
      d="M55.8 32.2V18.16C55.8 17.2984 55.1016 16.6 54.24 16.6H26.16C25.2984 16.6 24.6 17.2984 24.6 18.16V46.24C24.6 47.1016 25.2984 47.8 26.16 47.8H40.2"
      fill="white"
    />
    <path
      d="M55.8 32.2V18.16C55.8 17.2984 55.1016 16.6 54.24 16.6H26.16C25.2984 16.6 24.6 17.2984 24.6 18.16V46.24C24.6 47.1016 25.2984 47.8 26.16 47.8H40.2"
      stroke="currentColor"
      stroke-width="2"
      stroke-linecap="round"
      stroke-linejoin="round"
    />
    <path
      d="M35 40C34.282 40 33.7 39.418 33.7 38.7V24.4C33.7 23.682 34.282 23.1 35 23.1H39.879C40.8241 23.1 41.7068 23.195 42.5271 23.3851C43.3652 23.5579 44.0875 23.8603 44.6938 24.2923C45.318 24.7071 45.8083 25.2687 46.165 25.9772C46.5216 26.6684 46.7 27.5238 46.7 28.5432C46.7 29.5282 46.5128 30.3836 46.1383 31.1093C45.7817 31.8351 45.2912 32.4313 44.6671 32.8978C44.0429 33.3644 43.3206 33.7101 42.5003 33.9347C41.68 34.1594 40.8063 34.2717 39.879 34.2717H38.9321C38.2141 34.2717 37.6321 34.8537 37.6321 35.5717V38.7C37.6321 39.418 37.0501 40 36.3321 40H35ZM37.6321 29.9389C37.6321 30.6569 38.2141 31.2389 38.9321 31.2389H39.6383C41.7782 31.2389 42.8481 30.3404 42.8481 28.5432C42.8481 27.662 42.5717 27.0399 42.019 26.677C41.484 26.3141 40.6904 26.1327 39.6383 26.1327H38.9321C38.2141 26.1327 37.6321 26.7147 37.6321 27.4326V29.9389Z"
      fill="currentColor"
    />
    <path
      d="M50.6 56.9C49.882 56.9 49.3 56.318 49.3 55.6V41.3C49.3 40.582 49.882 40 50.6 40H55.134C56.0397 40 56.8744 40.0692 57.6381 40.2074C58.4195 40.3284 59.0945 40.553 59.6627 40.8813C60.231 41.2097 60.675 41.6416 60.9947 42.1772C61.3321 42.713 61.5008 43.3869 61.5008 44.1991C61.5008 44.5793 61.4386 44.9594 61.3143 45.3396C61.2077 45.7197 61.0302 46.074 60.7816 46.4022C60.5329 46.7306 60.2221 47.0244 59.8492 47.2836C59.4881 47.5345 59.0605 47.7207 58.5663 47.842C58.5375 47.8491 58.5173 47.8747 58.5173 47.9043C58.5173 47.9351 58.5395 47.9615 58.5698 47.9672C59.787 48.1944 60.7106 48.6232 61.341 49.2535C61.9803 49.8929 62.3 50.7829 62.3 51.9233C62.3 52.7873 62.1313 53.5304 61.7939 54.1524C61.4564 54.7745 60.9858 55.2929 60.382 55.7076C59.7781 56.1051 59.0678 56.4076 58.2508 56.6149C57.4516 56.805 56.5814 56.9 55.6402 56.9H50.6ZM53.216 45.4911C53.216 46.2091 53.798 46.7911 54.516 46.7911H54.9476C55.9066 46.7911 56.5992 46.6097 57.0254 46.2468C57.4516 45.8839 57.6647 45.3741 57.6647 44.7174C57.6647 44.0954 57.4428 43.6547 56.9987 43.3956C56.5726 43.1191 55.8976 42.9808 54.9742 42.9808H54.516C53.798 42.9808 53.216 43.5629 53.216 44.2808V45.4911ZM53.216 52.6192C53.216 53.3371 53.798 53.9192 54.516 53.9192H55.3204C57.4162 53.9192 58.464 53.1589 58.464 51.6382C58.464 50.8952 58.2064 50.3594 57.6914 50.0312C57.1941 49.7028 56.4038 49.5386 55.3204 49.5386H54.516C53.798 49.5386 53.216 50.1206 53.216 50.8386V52.6192Z"
      fill="currentColor"
    />
  </g>
  <defs>
    <clipPath id="clip0_1_13">
      <rect width="96" height="96" fill="white" />
    </clipPath>
  </defs>
</svg>
